<?xml version="1.0" standalone="no"?>
<!DOCTYPE svg PUBLIC "-//W3C//DTD SVG 20010904//EN"
 "http://www.w3.org/TR/2001/REC-SVG-20010904/DTD/svg10.dtd">
<svg version="1.0" xmlns="http://www.w3.org/2000/svg"
 width="200.000000pt" height="200.000000pt" viewBox="0 0 200.000000 200.000000"
 preserveAspectRatio="xMidYMid meet">
<metadata>
Created by potrace 1.14, written by Peter Selinger 2001-2017
</metadata>
<g transform="translate(0.000000,200.000000) scale(0.100000,-0.100000)"
fill="#000000" stroke="none">
<path d="M0 1000 l0 -1000 1000 0 1000 0 0 1000 0 1000 -1000 0 -1000 0 0
-1000z m810 186 c0 -2 -8 -10 -17 -17 -16 -13 -17 -12 -4 4 13 16 21 21 21 13z
m-20 -78 c0 -5 10 -18 21 -27 23 -18 36 -94 20 -119 -11 -19 -44 2 -58 37 -35
86 -37 95 -25 99 7 2 10 7 8 11 -3 4 4 8 15 8 10 1 19 -3 19 -9z m142 -242 c4
3 12 3 19 -1 8 -6 7 -10 -4 -16 -23 -14 -67 7 -67 31 0 14 -7 20 -22 20 -19 0
-20 2 -8 10 11 7 23 1 46 -21 16 -16 33 -27 36 -23z m555 40 c-2 -5 -31 -26
-66 -47 -66 -40 -161 -76 -221 -83 -20 -3 -48 -8 -63 -11 -29 -8 -117 12 -117
26 0 4 -16 11 -35 15 -19 3 -35 9 -35 13 0 8 104 31 139 31 12 0 35 7 50 15
29 15 40 17 156 40 77 14 196 15 192 1z"/>
</g>
</svg>
